HIERARCHY
ROOT root
{
	OFFSET 0.000000 0.000000 0.000000
	CHANNELS 6 Xposition Yposition Zposition Zrotation Yrotation Xrotation
	JOINT lhip
	{
		OFFSET 0.058581 -0.082280 -0.017664
		CHANNELS 3 Zrotation Yrotation Xrotation
		JOINT lknee
		{
			OFFSET 0.043451 -0.386469 0.008037
			CHANNELS 3 Zrotation Yrotation Xrotation
			JOINT lankle
			{
				OFFSET -0.014790 -0.426874 -0.037428
				CHANNELS 3 Zrotation Yrotation Xrotation
				JOINT ltoe
				{
					OFFSET 0.041054 -0.060286 0.122042
					CHANNELS 3 Zrotation Yrotation Xrotation
					End Site
					{
						OFFSET 0.000000 0.000000 0.000000
					}
				}
			}
		}
	}
	JOINT rhip
	{
		OFFSET -0.060310 -0.090513 -0.013543
		CHANNELS 3 Zrotation Yrotation Xrotation
		JOINT rknee
		{
			OFFSET -0.043257 -0.383688 -0.004843
			CHANNELS 3 Zrotation Yrotation Xrotation
			JOINT rankle
			{
				OFFSET 0.019056 -0.420046 -0.034562
				CHANNELS 3 Zrotation Yrotation Xrotation
				JOINT rtoe
				{
					OFFSET -0.034840 -0.062106 0.130323
					CHANNELS 3 Zrotation Yrotation Xrotation
					End Site
					{
						OFFSET 0.000000 0.000000 0.000000
					}
				}
			}
		}
	}
	JOINT lowerback
	{
		OFFSET 0.004439 0.124404 -0.038385
		CHANNELS 3 Zrotation Yrotation Xrotation
		JOINT upperback
		{
			OFFSET 0.004488 0.137956 0.026820
			CHANNELS 3 Zrotation Yrotation Xrotation
			JOINT chest
			{
				OFFSET -0.002265 0.056032 0.002855
				CHANNELS 3 Zrotation Yrotation Xrotation
				JOINT lowerneck
				{
					OFFSET -0.013390 0.211636 -0.033468
					CHANNELS 3 Zrotation Yrotation Xrotation
					JOINT upperneck
					{
						OFFSET 0.010113 0.088937 0.050410
						CHANNELS 3 Zrotation Yrotation Xrotation
						End Site
						{
							OFFSET 0.000000 0.000000 0.000000
						}
					}
				}
				JOINT lclavicle
				{
					OFFSET 0.071702 0.114000 -0.018898
					CHANNELS 3 Zrotation Yrotation Xrotation
					JOINT lshoulder
					{
						OFFSET 0.122921 0.045205 -0.019046
						CHANNELS 3 Zrotation Yrotation Xrotation
						JOINT lelbow
						{
							OFFSET 0.255332 -0.015649 -0.022946
							CHANNELS 3 Zrotation Yrotation Xrotation
							JOINT lwrist
							{
								OFFSET 0.265709 0.012698 -0.007375
								CHANNELS 3 Zrotation Yrotation Xrotation
								End Site
								{
									OFFSET 0.000000 0.000000 0.000000
								}
							}
						}
					}
				}
				JOINT rclavicle
				{
					OFFSET -0.082954 0.112472 -0.023707
					CHANNELS 3 Zrotation Yrotation Xrotation
					JOINT rshoulder
					{
						OFFSET -0.113228 0.046853 -0.008472
						CHANNELS 3 Zrotation Yrotation Xrotation
						JOINT relbow
						{
							OFFSET -0.260127 -0.014369 -0.031269
							CHANNELS 3 Zrotation Yrotation Xrotation
							JOINT rwrist
							{
								OFFSET -0.269108 0.006794 -0.006027
								CHANNELS 3 Zrotation Yrotation Xrotation
								End Site
								{
									OFFSET 0.000000 0.000000 0.000000
								}
							}
						}
					}
				}
			}
		}
	}
}
MOTION
Frames: 8
Frame Time: 0.033333
0.195342 0.491777 0.954440 77.486268 1.655951 80.434305 -6.631119 -4.251223 -6.208094 -8.376234 -0.008276 32.110236 8.326219 17.881528 -23.672526 0.000000 -0.000000 0.000000 -8.105626 -2.967642 -31.033021 3.456750 -10.405086 17.570781 3.598916 -10.422172 37.512603 0.000000 -0.000000 0.000000 -1.107132 -0.985055 17.171258 3.036191 -1.545500 1.528077 -1.056204 3.264377 -1.114788 -1.032487 -2.655767 16.228320 -0.677686 -0.318743 16.859006 0.047233 -4.432918 -8.485060 -25.754803 -30.269872 5.540306 74.791598 -65.908829 -73.205003 -6.981910 -16.434476 -38.750211 1.604956 8.351659 -7.066845 22.111707 17.447729 1.478812 -125.660284 76.897082 -119.941822 10.581008 7.967900 -17.545877 
0.194658 0.491570 0.952384 77.575663 1.687736 80.414748 -6.360009 -4.233987 -6.604937 -8.704285 0.348380 32.877634 8.385130 17.810338 -23.935908 0.000000 -0.000000 0.000000 -7.763862 -2.906877 -31.208355 3.680911 -10.370230 17.212503 3.865062 -10.062470 37.593497 0.000000 -0.000000 0.000000 -1.251970 -1.018236 17.537602 3.015683 -1.665082 1.585734 -1.139875 3.141005 -1.328776 -0.991271 -2.741358 16.163794 -0.706394 0.024215 16.834028 -0.415521 -4.403895 -8.218891 -27.062115 -30.091034 6.458130 74.582735 -66.467802 -72.616672 -7.555373 -16.354323 -38.895083 2.116391 8.315797 -6.861453 23.032572 17.683347 2.051181 -125.469072 77.856513 -119.237250 11.386822 7.372891 -17.164619 
0.194026 0.491495 0.950529 77.625980 1.574790 80.186777 -6.368915 -4.348301 -6.653168 -8.933672 0.700451 33.543358 7.757123 17.985369 -24.355311 0.000000 -0.000000 0.000000 -7.548376 -2.688668 -31.211937 3.764130 -10.392330 16.920823 3.751356 -9.905411 37.840749 0.000000 -0.000000 0.000000 -1.483512 -0.934555 17.711914 2.958436 -1.824731 2.048486 -1.235267 3.070787 -1.384219 -1.185736 -2.905666 15.934987 -0.538357 0.088439 17.112822 -1.244250 -4.829710 -7.234885 -27.601252 -29.909345 6.654823 74.977148 -66.628235 -73.251777 -8.118434 -16.163624 -38.021726 2.948446 8.788540 -6.389918 23.343792 17.657974 2.202526 -124.301837 78.588488 -118.294837 12.092692 6.963917 -16.419592 
0.193506 0.491163 0.948717 77.881825 1.537374 79.994919 -6.405677 -4.340418 -6.617911 -8.903183 0.755974 33.809974 8.059905 17.813799 -24.661447 0.000000 -0.000000 0.000000 -7.321437 -2.669967 -31.158754 3.809372 -10.528404 16.517508 3.643930 -9.869505 38.130984 0.000000 -0.000000 0.000000 -1.713975 -0.997580 17.870796 2.996094 -2.012120 2.562834 -1.271959 3.030566 -1.631290 -1.246756 -3.042096 15.824721 -0.550500 0.291914 17.461410 -1.946853 -4.814807 -6.643506 -28.890397 -29.835553 7.519834 74.449035 -66.857764 -72.651805 -9.264899 -16.164611 -37.747007 3.497364 8.894120 -5.853276 24.085757 17.901500 2.692824 -121.635443 79.117738 -115.676039 13.313455 6.425494 -16.539574 
0.192594 0.490825 0.947287 78.046363 1.483506 80.130209 -6.542058 -4.845188 -7.066713 -8.793330 1.019164 34.375602 8.437712 17.937477 -24.772950 0.000000 -0.000000 0.000000 -7.121957 -2.464049 -31.535958 3.750574 -10.744833 16.453956 3.547140 -9.800522 38.679642 0.000000 -0.000000 0.000000 -1.913769 -1.012288 18.239445 2.973286 -2.088838 2.451661 -1.293245 2.821272 -1.800745 -0.902504 -2.746903 15.833359 -0.899623 0.269769 17.533545 -2.681202 -4.558333 -6.834326 -30.238810 -29.473667 8.961776 73.409124 -67.379958 -71.528616 -9.198946 -16.043507 -37.377154 4.000703 8.589181 -5.573204 25.456494 17.727036 4.019791 -121.795615 79.197413 -115.481630 12.880909 5.916938 -16.170452 
0.192272 0.490920 0.945696 78.410835 1.527284 80.156898 -6.722261 -5.203017 -7.420772 -8.623465 0.914632 34.985822 8.828230 18.076795 -24.881013 0.000000 -0.000000 0.000000 -7.004899 -2.167051 -31.649699 3.782586 -10.288822 16.372784 3.370235 -9.821498 38.707298 0.000000 -0.000000 0.000000 -1.807720 -1.113807 18.697674 2.948806 -2.141199 2.013277 -1.371812 2.677741 -1.525199 -1.193870 -3.240732 15.417582 -0.850101 0.586580 17.826972 -3.390998 -4.200401 -6.564823 -31.641939 -29.509148 9.890602 72.196462 -68.133235 -70.124759 -9.558160 -15.978122 -36.940103 4.804604 8.155136 -5.237537 26.032680 17.878958 4.476010 -121.585068 79.944624 -114.992313 13.231370 5.881370 -15.628355 
0.191769 0.491079 0.944159 78.665962 1.571985 80.021273 -6.782812 -5.521931 -7.500569 -8.493952 1.046651 35.447134 8.839317 18.040372 -25.033220 0.000000 -0.000000 0.000000 -6.911190 -1.930797 -31.748955 3.788340 -10.105718 16.500630 3.511557 -9.827970 38.559699 0.000000 -0.000000 0.000000 -1.692887 -1.190793 19.254705 2.898982 -2.113880 1.692251 -1.404866 2.625618 -1.231519 -1.437151 -3.346045 15.574371 -0.462358 0.602389 17.541238 -4.190174 -4.073435 -6.652981 -32.302174 -29.380222 10.917208 69.503274 -69.020231 -67.507489 -9.495682 -15.946210 -36.598496 5.471662 7.761028 -4.842794 26.524534 17.788999 4.673707 -121.769895 80.821425 -115.380191 13.162680 5.667221 -14.889341 
0.191421 0.491190 0.942769 78.672700 1.451911 79.909214 -6.867316 -5.643737 -7.569672 -8.836998 1.118724 36.013415 8.277524 18.350165 -25.331319 0.000000 -0.000000 0.000000 -6.864768 -1.672040 -32.014481 3.670302 -9.882963 16.967291 3.605274 -9.486152 38.390243 0.000000 -0.000000 0.000000 -1.851208 -1.067981 19.276381 3.005158 -2.180893 2.651761 -1.448679 2.480985 -1.674972 -1.617137 -3.352575 15.561329 -0.416004 0.743846 17.234949 -4.648078 -4.326151 -5.428202 -33.023670 -28.718445 11.014724 70.150857 -69.425197 -67.578478 -9.479790 -16.123776 -36.684405 5.923399 7.938914 -4.185532 26.909173 17.193935 5.029402 -120.793127 81.337592 -113.250047 12.884201 6.553058 -14.999386 
